HIERARCHY
ROOT joint_Root
{
	OFFSET 0.0 0.0 0.0
	CHANNELS 6 Xposition Yposition Zposition Zrotation Xrotation Yrotation 
	JOINT Hips
	{
		OFFSET 4.5925 91.4895 -427.239
		CHANNELS 6 Xposition Yposition Zposition Zrotation Xrotation Yrotation 
		JOINT Spine
		{
			OFFSET 15.7357 0.0 0.0
			CHANNELS 6 Xposition Yposition Zposition Zrotation Xrotation Yrotation 
			JOINT Chest
			{
				OFFSET 8.98455 -0.406207 0.0
				CHANNELS 6 Xposition Yposition Zposition Zrotation Xrotation Yrotation 
				JOINT Neck
				{
					OFFSET 16.3773 0.0 0.0
					CHANNELS 6 Xposition Yposition Zposition Zrotation Xrotation Yrotation 
					JOINT Head
					{
						OFFSET 6.45672 0.0 0.0
						CHANNELS 6 Xposition Yposition Zposition Zrotation Xrotation Yrotation 
						End Site
						{
							OFFSET 0.0 0.0 0.0
						}
					}
				}
				JOINT Shoulder_L
				{
					OFFSET 12.9942 -0.242716 4.98039
					CHANNELS 6 Xposition Yposition Zposition Zrotation Xrotation Yrotation 
					JOINT UpperArm_L
					{
						OFFSET 5.34809 0.0 0.0
						CHANNELS 6 Xposition Yposition Zposition Zrotation Xrotation Yrotation 
						JOINT LowerArm_L
						{
							OFFSET 24.3286 1.87007e-05 0.0
							CHANNELS 6 Xposition Yposition Zposition Zrotation Xrotation Yrotation 
							JOINT Hand_L
							{
								OFFSET 22.2916 0.0 0.0
								CHANNELS 6 Xposition Yposition Zposition Zrotation Xrotation Yrotation 
								End Site
								{
									OFFSET 0.0 0.0 0.0
								}
							}
						}
					}
				}
				JOINT Shoulder_R
				{
					OFFSET 12.9945 -0.242716 -4.98039
					CHANNELS 6 Xposition Yposition Zposition Zrotation Xrotation Yrotation 
					JOINT UpperArm_R
					{
						OFFSET -5.34813 0.0 0.0
						CHANNELS 6 Xposition Yposition Zposition Zrotation Xrotation Yrotation 
						JOINT LowerArm_R
						{
							OFFSET -24.3289 0.000322201 0.0
							CHANNELS 6 Xposition Yposition Zposition Zrotation Xrotation Yrotation 
							JOINT Hand_R
							{
								OFFSET -22.2915 -0.000108084 0.0
								CHANNELS 6 Xposition Yposition Zposition Zrotation Xrotation Yrotation 
								End Site
								{
									OFFSET 0.0 0.0 0.0
								}
							}
						}
					}
				}
			}
		}
		JOINT UpperLeg_L
		{
			OFFSET -2.19248 -6.46944 0.0
			CHANNELS 6 Xposition Yposition Zposition Zrotation Xrotation Yrotation 
			JOINT LowerLeg_L
			{
				OFFSET 39.0811 0.0 -1.23785e-05
				CHANNELS 6 Xposition Yposition Zposition Zrotation Xrotation Yrotation 
				JOINT Foot_L
				{
					OFFSET 40.9854 0.0 -1.26872e-05
					CHANNELS 6 Xposition Yposition Zposition Zrotation Xrotation Yrotation 
					JOINT Toes_L
					{
						OFFSET 11.7543 0.0 0.0
						CHANNELS 6 Xposition Yposition Zposition Zrotation Xrotation Yrotation 
						End Site
						{
							OFFSET 0.0 0.0 0.0
						}
					}
				}
			}
		}
		JOINT UpperLeg_R
		{
			OFFSET -2.19251 6.46944 0.0
			CHANNELS 6 Xposition Yposition Zposition Zrotation Xrotation Yrotation 
			JOINT LowerLeg_R
			{
				OFFSET -39.0811 -0.00228153 -0.0401928
				CHANNELS 6 Xposition Yposition Zposition Zrotation Xrotation Yrotation 
				JOINT Foot_R
				{
					OFFSET -40.9854 0.0 0.0
					CHANNELS 6 Xposition Yposition Zposition Zrotation Xrotation Yrotation 
					JOINT Toes_R
					{
						OFFSET -11.7543 0.0 0.0
						CHANNELS 6 Xposition Yposition Zposition Zrotation Xrotation Yrotation 
						End Site
						{
							OFFSET 0.0 0.0 0.0
						}
					}
				}
			}
		}
	}
}
MOTION
Frames:	7
Frame Time:	0.0333333
0.000000 0.000000 0.000000 0.000000 0.000000 -0.000000 0.610373 86.401300 -3.898870 89.468700 -3.570420 7.650660 15.735700 0.000005 -0.000001 95.291900 81.656600 -94.010600 8.984550 -0.406207 -0.000000 8.835990 1.543150 2.441140 16.377300 -0.000001 -0.000001 -0.682951 -3.727480 2.456720 6.456720 -0.000001 -0.000000 -4.166930 -6.036920 7.214020 12.994200 -0.242716 4.980390 -91.563200 4.349040 -70.208000 5.348090 -0.000007 -0.000001 -70.390500 12.532900 -13.499400 24.328600 0.000019 0.000005 1.620560 4.145370 -21.365800 22.291600 -0.000001 0.000005 13.787400 5.245470 1.569380 12.994500 -0.242716 -4.980390 88.380400 9.559700 -80.338700 -5.348130 -0.000001 -0.000004 -58.489600 29.008200 -8.904430 -24.328900 0.000322 -0.000009 -1.196470 -1.944280 -31.640300 -22.291500 -0.000108 -0.000004 12.816300 5.432160 -3.930500 -2.192480 -6.469440 -0.000000 -177.063000 -10.542500 -15.518700 39.081100 -0.000007 -0.000012 -0.313670 0.260868 50.251600 40.985400 -0.000006 -0.000013 2.037940 3.854650 -77.278300 11.754300 -0.000000 0.000003 -0.000299 -0.002596 -16.674300 -2.192510 6.469440 -0.000001 175.934000 17.829200 165.062000 -39.081100 -0.002282 -0.040193 0.065968 -0.052114 50.277300 -40.985400 0.000008 0.000006 6.733920 9.583870 -77.693100 -11.754300 -0.000006 -0.000006 -0.001567 -0.023164 -17.515000
0.000000 0.000000 0.000000 0.000000 0.000000 -0.000000 1.716200 86.669000 -3.173580 90.711500 -4.511650 8.997230 15.735700 0.000005 -0.000001 94.904600 81.425900 -92.644400 8.984550 -0.406207 -0.000000 9.296270 1.488180 4.395790 16.377300 -0.000001 -0.000001 0.426732 -3.240420 2.542230 6.456720 -0.000001 -0.000000 -4.089570 -4.536450 4.774790 12.994200 -0.242716 4.980390 -91.300000 3.552200 -69.881900 5.348090 -0.000007 -0.000001 -64.435800 1.861570 -11.935600 24.328600 0.000019 0.000005 3.914500 9.981400 -21.544100 22.291600 -0.000001 0.000005 12.181500 5.179140 3.215000 12.994500 -0.242716 -4.980390 88.231100 9.673510 -79.585600 -5.348130 -0.000001 -0.000004 -56.514100 26.396100 -11.132100 -24.328900 0.000322 -0.000009 -2.307390 -4.528290 -27.013400 -22.291500 -0.000108 -0.000004 15.367200 5.508260 -6.868420 -2.192480 -6.469440 -0.000000 -178.901000 -10.841800 -12.808500 39.081100 -0.000007 -0.000012 -0.281681 0.247417 48.706000 40.985400 -0.000006 -0.000013 2.414350 2.746360 -77.261800 11.754300 -0.000000 0.000003 -0.000301 -0.002608 -16.674700 -2.192510 6.469440 -0.000001 173.349000 16.786600 167.103000 -39.081100 -0.002282 -0.040193 0.059011 -0.047452 49.602700 -40.985400 0.000008 0.000006 6.023340 10.337700 -77.629500 -11.754300 -0.000006 -0.000006 -0.001554 -0.022993 -17.508100
0.000000 0.000000 0.000000 0.000000 0.000000 -0.000000 2.864070 87.761200 -2.300340 91.942700 -6.018040 9.786780 15.735700 0.000005 -0.000001 96.937100 81.698600 -93.563300 8.984550 -0.406207 -0.000000 8.668480 2.022160 6.588610 16.377300 -0.000001 -0.000001 2.829250 -3.041320 2.583770 6.456720 -0.000001 -0.000000 -3.111500 -3.767750 1.772040 12.994200 -0.242716 4.980390 -90.815200 2.145160 -69.182000 5.348090 -0.000007 -0.000001 -57.501500 -16.417600 -12.747100 24.328600 0.000019 0.000005 1.352150 3.378410 -21.902900 22.291600 -0.000001 0.000005 15.815000 5.098030 5.134720 12.994500 -0.242716 -4.980390 88.279400 8.566990 -78.597800 -5.348130 -0.000001 -0.000004 -58.300900 18.931400 -10.579300 -24.328900 0.000322 -0.000009 -1.085780 -2.481030 -23.618200 -22.291500 -0.000108 -0.000004 17.227600 5.438450 -4.295530 -2.192480 -6.469440 -0.000000 179.244000 -11.603900 -8.987080 39.081100 -0.000007 -0.000012 -0.234855 0.243796 43.930400 40.985400 -0.000006 -0.000013 2.696500 1.643390 -75.757800 11.754300 -0.000000 0.000003 -0.000281 -0.002460 -16.669400 -2.192510 6.469440 -0.000001 171.429000 14.118400 169.838000 -39.081100 -0.002282 -0.040193 0.043974 -0.039395 45.942400 -40.985400 0.000008 0.000006 4.793930 10.124600 -75.991800 -11.754300 -0.000006 -0.000006 -0.001954 -0.028140 -17.717300
0.000000 0.000000 0.000000 0.000000 0.000000 -0.000000 3.806050 88.928200 -1.779090 92.949400 -7.198380 8.916270 15.735700 0.000005 -0.000001 102.035000 82.702000 -97.833400 8.984550 -0.406207 -0.000000 6.420060 2.985280 8.226800 16.377300 -0.000001 -0.000001 5.759710 -3.005330 3.183000 6.456720 -0.000001 -0.000000 -1.727580 -4.183660 -0.735371 12.994200 -0.242716 4.980390 -90.054300 0.137789 -68.393200 5.348090 -0.000007 -0.000001 -49.571200 -32.450300 -18.691800 24.328600 0.000019 0.000005 -3.655310 -7.475630 -26.144900 22.291600 -0.000001 0.000005 19.381000 5.155590 3.804990 12.994500 -0.242716 -4.980390 88.346300 7.710100 -77.855600 -5.348130 -0.000001 -0.000004 -59.318800 13.540300 -8.109420 -24.328900 0.000322 -0.000009 -2.014400 -4.860800 -22.540200 -22.291500 -0.000108 -0.000004 19.808600 5.350810 -1.408990 -2.192480 -6.469440 -0.000000 177.772000 -13.784800 -6.823940 39.081100 -0.000007 -0.000012 -0.136267 0.171490 38.471300 40.985400 -0.000006 -0.000013 3.496120 2.457960 -73.640400 11.754300 -0.000000 0.000003 -0.000198 -0.001839 -16.646900 -2.192510 6.469440 -0.000001 170.215000 12.857700 170.966000 -39.081100 -0.002282 -0.040193 0.034707 -0.035349 41.643800 -40.985400 0.000008 0.000006 4.029300 10.406300 -73.960500 -11.754300 -0.000006 -0.000006 -0.002767 -0.037940 -18.116000
0.000000 0.000000 0.000000 0.000000 0.000000 -0.000000 4.343590 89.704200 -1.554990 93.381900 -6.909160 7.772270 15.735700 0.000005 -0.000001 105.472000 83.725000 -100.851000 8.984550 -0.406207 -0.000000 4.222150 3.200320 9.116160 16.377300 -0.000001 -0.000001 7.738830 -3.224860 3.458150 6.456720 -0.000001 -0.000000 -1.219100 -5.108130 -1.589210 12.994200 -0.242716 4.980390 -89.021800 -2.512290 -68.706000 5.348090 -0.000007 -0.000001 -38.170800 -42.840100 -25.576300 24.328600 0.000019 0.000005 -3.426660 -5.236800 -33.270800 22.291600 -0.000001 0.000005 17.411500 5.305310 -0.093585 12.994500 -0.242716 -4.980390 88.228800 7.856200 -77.252700 -5.348130 -0.000001 -0.000004 -57.952700 12.930800 -5.990100 -24.328900 0.000322 -0.000009 -4.085810 -10.391600 -21.604100 -22.291500 -0.000108 -0.000004 19.422400 5.371260 -2.039030 -2.192480 -6.469440 -0.000000 177.216000 -16.230000 -5.875300 39.081100 -0.000007 -0.000012 -0.037185 0.053908 34.598100 40.985400 -0.000006 -0.000013 4.534590 5.117200 -72.063700 11.754300 -0.000000 0.000003 -0.000078 -0.000828 -16.609500 -2.192510 6.469440 -0.000001 169.546000 13.595200 171.572000 -39.081100 -0.002282 -0.040193 0.031071 -0.035081 38.384100 -40.985400 0.000008 0.000006 3.581210 10.926600 -72.480800 -11.754300 -0.000006 -0.000006 -0.003520 -0.046347 -18.458200
0.000000 0.000000 0.000000 0.000000 0.000000 -0.000000 4.572020 90.048500 -1.476240 93.155900 -5.342270 7.479490 15.735700 0.000005 -0.000001 103.609000 84.226800 -98.839700 8.984550 -0.406207 -0.000000 3.371540 2.531310 9.454080 16.377300 -0.000001 -0.000001 8.173100 -3.910830 2.920580 6.456720 -0.000001 -0.000000 -1.779250 -6.060940 -0.686098 12.994200 -0.242716 4.980390 -87.464200 -6.841170 -69.604400 5.348090 -0.000007 -0.000001 -25.131800 -52.527800 -29.064300 24.328600 0.000019 0.000005 -5.442230 -5.760450 -43.492300 22.291600 -0.000001 0.000005 20.192700 5.435050 -4.038620 12.994500 -0.242716 -4.980390 88.028300 8.359690 -76.678300 -5.348130 -0.000001 -0.000004 -55.967200 14.667300 -4.983910 -24.328900 0.000322 -0.000009 -4.158420 -11.179800 -20.549900 -22.291500 -0.000108 -0.000004 16.887400 5.402650 -3.028730 -2.192480 -6.469440 -0.000000 177.386000 -16.541000 -5.256970 39.081100 -0.000007 -0.000012 -0.012067 0.018571 33.017100 40.985400 -0.000006 -0.000013 5.145190 6.894090 -71.389400 11.754300 -0.000000 0.000003 -0.000049 -0.000557 -16.599200 -2.192510 6.469440 -0.000001 169.392000 15.141000 172.636000 -39.081100 -0.002282 -0.040193 0.030984 -0.037226 36.650400 -40.985400 0.000008 0.000006 3.400520 10.957200 -71.749200 -11.754300 -0.000006 -0.000006 -0.003462 -0.045723 -18.432800
0.000000 0.000000 0.000000 0.000000 0.000000 -0.000000 4.755970 90.116900 -1.530990 92.423700 -3.372740 7.778590 15.735700 0.000005 -0.000001 98.892800 84.231400 -93.945400 8.984550 -0.406207 -0.000000 3.583710 1.601410 9.834140 16.377300 -0.000001 -0.000001 7.601490 -3.841250 0.697839 6.456720 -0.000001 -0.000000 -2.293720 -7.377040 2.268060 12.994200 -0.242716 4.980390 -84.876700 -12.804400 -67.984100 5.348090 -0.000007 -0.000001 -19.083700 -62.573900 -34.796200 24.328600 0.000019 0.000005 -5.925430 -4.270700 -54.381400 22.291600 -0.000001 0.000005 26.817400 5.448450 -4.589120 12.994500 -0.242716 -4.980390 88.118700 7.990700 -76.705800 -5.348130 -0.000001 -0.000004 -54.954100 15.648600 -4.118920 -24.328900 0.000322 -0.000009 -2.435720 -6.517260 -20.539100 -22.291500 -0.000108 -0.000004 15.492600 5.395900 -2.804500 -2.192480 -6.469440 -0.000000 177.715000 -14.297700 -5.088720 39.081100 -0.000007 -0.000012 -0.030994 0.047494 33.128900 40.985400 -0.000006 -0.000013 5.220460 6.498560 -71.243800 11.754300 -0.000000 0.000003 -0.000051 -0.000579 -16.600000 -2.192510 6.469440 -0.000001 169.529000 16.833900 173.911000 -39.081100 -0.002282 -0.040193 0.029616 -0.036451 35.839000 -40.985400 0.000008 0.000006 3.088090 10.894400 -71.406500 -11.754300 -0.000006 -0.000006 -0.003309 -0.044047 -18.364500
